@startuml
class Читатель {
+Паспортные данные
+ФИО
+Список взятых книг
}
class Управляющий{
+Паспортные данный
+ФИО
+список читателей
}
class взять_книгу{
+Название книги
+ФИО автора
+взятие книги
}
class сдать_книгу{
+Название книги
+ФИО автора
+сдача книги
}
Читатель --> взять_книгу:заявка на взятие книги
Управляющий --> взять_книгу:проверка несданных книг
Читатель --> сдать_книгу:сдача книги
Управляющий --> сдать_книгу:удаление из списка не сданных книг
взять_книгу --> выполнение_действия
сдать_книгу --> выполнение_действия
@enduml
