@startuml
title Пратическая работа 3: Template Method
class Algorithm{
template_method()
flagstock()
draw_1()
draw_2()
draw_3()
final()
printer()
}
note right of Algorithm::"template_method()"
self.flagstock()
self.draw_1()
self.draw_2()
self.draw_3()
self.final()
self.printer()
end note
class colors{
painwhite()
painred()
painblue()
}
class France{
z = colors
z.pain
draw_1()
draw_2()
draw_3()
final()
}
class  Germany{
z = colors
z.pain
draw_1()
draw_2()
draw_3()
}
Algorithm <|-- Germany :Немецкий флаг
Algorithm <|-- France : Французский флаг
France -  Germany
(France, Germany) - colors:Задает цвет
@enduml
